<?xml version="1.0" encoding="utf-8"?>
<!-- Generator: Adobe Illustrator 24.3.0, SVG Export Plug-In . SVG Version: 6.00 Build 0)  -->
<svg version="1.1" id="menu-logo" xmlns="http://www.w3.org/2000/svg" xmlns:xlink="http://www.w3.org/1999/xlink" x="0px" y="0px"
	 viewBox="0 0 160 160" style="enable-background:new 0 0 160 160;" xml:space="preserve">
<style type="text/css">
	.st0{fill:none;}
	.st1{fill:#FFFFFF;}
	.st2{fill:#F7941D;}
	.st3{fill:#231F20;}
	.st4{fill:#231F20;stroke:#231F20;stroke-width:2.9224;stroke-miterlimit:10;}
</style>
<g id="background">
	<rect id="bounds" class="st0" width="160" height="160"/>
	<path id="path" class="st1" d="M15.6,116.6l-0.1,0.3v0.2h0.1l0.6,0.2l1.2,0.4l2.4,0.8l4.9,1.8c1.6,0.6,3.2,1.1,4.7,1.7l1.4,0.5
		c0.4,0.2,0.8,0.3,1.1,0.5c0.9-0.3,2-0.3,2.9,0.1l-0.3,1h0.9c0.2,0.4-0.7,0-0.2,0.5l0.5-0.5c-0.1,0.4,1.9,1,0.4,1.2l3.1,1.2
		c0.7,0.3,0.7-0.7,1.3-0.1c0,0.3-0.3,0.1-0.4,0.5c2,1.6,3.3-0.9,5.2,0.3h-0.2c0.5-0.1,1.1,0.2,1.2,0c0.1-1.1-0.6,0.4-1-0.4
		c0.4-0.8,1-0.1,1.2-0.8c0.4,0.5,0.8,0.1,1.3,0.2c0.5,0.8,1.7,0.8,2,1.7c0.5-0.1,1.1-0.8,1.9-0.5c0.3,0.9-0.3,0.6,0.3,1.1l0.3-0.4
		c0.6,0.3,0.4,0.4,0.3,0.6c0.7,0.3,0.8-0.4,1.5,0.2l-0.6,0.3c0.6,0.1,1.2,0.3,1.7,0.6c-0.1,0.3-0.5,0.1-0.7,0c0.2,0.9,0.9,0,1.1,0.2
		c0-0.2-0.5-0.5-0.1-0.9c0.4,0.2,1.1-0.3,1.2,0.4l-0.6,0.3c1-0.1,0.7-0.4,1.6,0.1c-0.1,0-0.1,0.1-0.1,0.2c0.9-0.4,1.5,0.5,2.4,0.9
		h-0.2c0.4,0,0.8-0.4,1-0.3c-0.4-0.5-0.2-0.6-0.1-1c0.4,1,1.4-0.5,2.4,0.4c-0.1,0.3-0.5,0.5-0.7,0.1c-0.7,0.6-1,1.3-1.8,1.4
		c0.5,0,1.1,0.1,0.8,0.3l0.4-0.7c0.2,0.1,0.5,0.2,0.7,0.3c0.3-0.4-0.3-1,0.5-1s0.1,0.9,0.3,0.6c1.1,0.1,0.7-0.7,1.5-0.1
		c-0.1,0-0.3,0.1-0.4,0c0.6,0.5,1.7,0.5,1.6,1.4c-0.2,0.2-0.3,0.4-0.5,0.2l0.1-0.1c-1,0.4,0.7,0.1,0.2,0.8c0.1-0.5,1-0.1,1.4,0.2
		l0.1-0.6c2-1.2-0.4,1,1,1.4c1-0.1-0.3-0.3,0.4-0.5c0.6,0.3,0.6,0.9,1.6,1c0.3,0.4,0.5,0.9,0.4,1.4c0.6-0.1,1.5,0.9,2,0.4
		c-0.7-0.8-1.1,0.3-1.9-0.8l0.5-0.5c0.7,0.3,1.8,0.3,2.2,0.7c-0.1-0.1,0-0.3,0.1-0.4c1.1,0.2,1.6-0.3,2.6,0.2
		c-0.1,0.6-0.6,0.3-1.1,0.2c0.5,0.7,0.7,0.3,1.6,0.9c-0.1,0.5-0.7-0.3-1,0.2l1.2,0.1c0,0,0,0.1,0,0.1c0.4-0.8,0.8,0.4,1.6,0.4
		c1.6,0.6,2.2-0.4,3.4-0.7c0.2,0.3,0.2,0.5,0,0.7c-0.3-0.5-0.3-0.2-0.5,0c0.6,0.1,0.9,1.2,0.5,1.4c1,0.1-0.2-0.5,0.5-0.6l1.2,0.5
		c0-0.5-0.4-0.7,0.3-0.8c0.5,0.1,1,0.3,1.4,0.5c-0.2,0.2,0,0.7-0.5,0.5c0.3,0.3,0.8,0.4,1.1,0.1c-0.6-0.6,1.3,0.1,1-0.8l0.6,0.6
		c-0.2-0.1-0.3,0.2-0.5,0.1c0,0.7,0.7,0,1,0.1c0.2,0.2,0.9,0.5,0.9,0.8c0.4,0,0.8,0.2,0.8,0.6c0.4,0,0.2-0.4,0.3-0.6l1.2,0.5
		c-0.1,0.4-0.3,1.4-0.5,1.4c0.6-0.2,0.5-1,1.2-0.7c-0.6,0.5,0.7,0.8-0.1,1.4c0.2,0.6,1.4,1,2.1,1c0.6-0.4-0.6-0.5-0.3-1.1
		c1.8,0.4,2.4-1.1,3.6-0.3l-0.3-0.3c0.4,0,0.9-0.1,1.3-0.3c-0.4,0.6,0.3,2.1,1.6,2.4c0.2-0.3-0.5-0.9-0.1-1.4l0.9,0.2
		c0,0.1-0.1,0.2-0.2,0.2c0.8,0,1.1,1.4,1.6,0.6l0.5,1.3l-0.2-0.5c0.2-0.3,1.1-0.1,1.3-0.2c1-0.1,1.2,0.3,1.6,0.9
		c0-0.3-0.2-1.1,0.5-1c-0.4,1.1,1.3,0.9,1.1,1.5c0.3,0.1,0.7,0.6,0.8,0.1l-0.3,0.7c0.4-0.9,1.4-0.6,2.2-0.4
		c-0.6,1.2,0.9,0.2,0.9,1.5c0.4-0.8,1.5,0.1,1.9-0.6c0.6,0.2,0.3,1,0.4,1.3l0.4-0.2c0.2,0.5,1.3,1,1.9,1.5l0.9-0.6l0.1,0.4
		c0.2-0.2,0.7-0.1,0.5-0.5l0.3,0.2c0.3-0.8,0.6,0,1.4-0.2c0.1,0.1,0,0.3-0.1,0.4c0,0-0.1,0-0.1,0c0.3,0.1,0,0.5,0.1,0.9
		c-0.2-0.3,1.7-1.1,0.9-1.8c0-0.4,0.7-0.4,1-0.2v0.8l0.7-0.7c0.6,0.1,0.6,0.6,1.1,0.9c-0.4-0.1-1.4,1.1-0.3,1.5
		c-0.5,0-1,0.1-1.4,0.3c0.2,0.1,0.3,0.2-0.2,0.4c1,0,0.4-0.4,1.3-0.2c-0.3,0.7-0.1,1,0.6,1.4l-0.4-0.7c0-0.1,0.1-0.1,0.2-0.1
		c-0.2-0.1-0.2-0.3-0.2-0.6c0.2,0.1,1.3-0.5,1.3-0.1c-0.5-1.4,1.8-0.3,1.4-1.1c0.2-0.2,0.8,0,0.7,0.4c-0.9,0.3,0.3,1,0,1.4
		c0.3-0.1-0.4-0.7,0.1-0.9c0.4,0.1,0.6,0.6,0.8,0.9l-0.2,0.1l0.6,0.5c0.2-0.3-0.5-0.8,0.2-0.8c0.1,0.2,0.8,0.2,0.7,0.5
		c-0.4,0.4-0.4,1-1,1c0.4,0.1,1.9,0.5,1.5-0.4l0.5,0.2c-0.2-0.4-1-1.2,0.1-1v0.1l0.9-0.3l0.2,0.5c0-0.2,0.2-0.3,0.4-0.2
		c0,0,0.1,0,0.1,0c0,0.2,0.2,0.4,0.1,0.7c0.8,0.2,0.8-0.1,1-0.3c0.4,0.1,0.6,0.3,0.2,0.6c0.6,0.3,1.6,0.5,1.9,1
		c0.9-0.1-0.1-0.2,0.5-0.5c0.3,1.4,2.5,1.3,3.9,1.6c0-1.2,0.4,0,0.9-0.9c-0.4,0.2,1,1.2-0.2,1.1l0.7,0.1c0.3,0.7-1.3,0.1-0.8,1.1
		c0.8,0.2,1.7-0.8,2.5-0.1c-0.5,0.6,0.8-0.1,0.3,0.7c-0.3,0.2-0.5,0-0.8,0l0.1,0.2c1.6,0.8,0.8-0.7,1.8-1c1.1,0.2,0.6,0.9,0.6,1.2
		c0.1,0.2,0.7,0.2,1,0.1c-0.8,0.2-1.1-0.8-0.6-1.2c0.2,1,1.5,0.6,1.9,0.3c-1.2-1.4-1-0.4-2.1-1.8c-0.3,0.2-0.5,1-1.2,0.4
		c0.6-0.2,0.1-0.4-0.1-0.6c0,0.5-0.6,0-1,0.1c-0.1-0.4,0.8-0.9,0-1.3l-0.5,1c-0.3-0.3,0.4-0.7-0.4-0.7c0.6-0.4,0.1-0.9,1.1-0.7
		c-0.9-1.2-1.9-0.1-2.9,0c0.1,0,0.2-0.2,0.3-0.2c-0.3,0.2-0.6,0-0.9,0.1c-0.5-0.4,0.6-0.3,0.5-0.6l-1-0.3c0,0,0-0.1,0-0.1
		c-0.3,0-0.6,0-0.6-0.2c0.3-0.2,0.6-0.5,0.9-0.8l-1.2,0.4c0.2-0.3-0.6-0.9,0.1-0.9l-1.5-0.3l0.1-0.7c-0.4,0-0.4,0.1-0.1,0.4
		c-0.4-0.3-2.6,0.5-1.9-0.8c-1.3,0.2-1.7-0.2-3.2-0.3c1.3-0.3-1-1.2,0.2-1.1c-0.6-0.5-1,0.2-1.5,0.1c-0.4-0.4,0-1.1,0.6-1.1
		l-0.7,0.1l0.1-0.1l-0.7,0.2c-0.5-0.6,0.1-0.7-0.5-1l-0.3,0.6l-0.3-0.5c0,0.3-0.3,0.3-0.8,0.2v-0.1l-0.6-0.1
		c0.6-0.2-0.4-0.3-0.1-0.6c-0.4-0.2-0.9-0.3-1.3-0.3v0.5c-1.2,0,0.2-0.6-0.7-0.9l-0.1,0.5c-1-1.2-2.2-0.2-3-1.1
		c0.6,0.1,0.6-0.5,0.6-0.4c-0.8-0.1-2-0.6-3.1-0.3c0.1-0.6-0.3-1.3-0.8-1.6c-0.6-0.2-0.7-0.1-1.1,0.2c-0.5-0.5-1.7-0.4-1.6-0.9
		c-0.3,0.4-0.5-0.3-0.9,0v-0.2l-0.1,0.5c-0.7-1.4-2,0-2.7-1.3h0.2h-0.4c0-0.2,0.2-0.3,0.3-0.6l-2.1-0.8l0.3,0.5
		c-0.4-0.1-0.9,0.3-1.3-0.2c1.1-0.4-0.7-0.3-0.6-0.9h0.5c-0.6-0.2-0.6-0.2-0.7,0.3c-0.8-0.1-0.2-1.1-1.1-0.8l0.5,0.2
		c0,0.3-0.4,0.6-0.8,0.5c0-0.1-0.2-0.4,0.1-0.4c-0.7,0-1.5-0.6-1.8-0.5c-0.1-0.1-0.1-0.4,0-0.5c0.1-0.1,0.1-0.1,0.2-0.1
		c-1.5,0-0.6-0.3-2-0.3l0.1-0.3l-0.6,0.2l-0.5-0.8l0.1,0.4c-0.4-0.1-0.8,0-1.2-0.3l0.3-0.3c-1.3-0.2-1.2-1.2-2.5-1
		c0-0.1,0.2-0.2,0.3-0.2c-1.3,0.3-0.6-1-1.9-0.6c0.1-0.1,0.1-0.3,0.1-0.4l-0.6,0.1l0.2-0.5l-0.7,0.7l-0.1-0.7l-0.3,0.2
		c-0.2-1.2-1.2-0.7-1.6-1.7l-0.1,0.7c-2.3,0.8-3.9-2.2-6.2-2.4l0.2-0.5l-1.1,0.3c-0.3-0.6,0.4-0.4,0.4-0.7c-1.1,0-0.7,0.7-1.8,0.4
		c-0.4-0.6,0.3-0.3,0.7-0.4c-1.2,0-2.4-0.2-3.4-0.8c0,0.1-0.1,0.2-0.1,0.2c-0.8-0.2-1.6-0.4-2.4-0.8c0.1-0.2,0.3-0.2,0.5-0.2
		c-0.3-0.1-0.6-0.4-0.9-0.3l0.4-0.4c-0.6-0.3-1.8-0.3-1.8-0.8c0,0.2-0.2,0.5-0.4,0.5c0,0,0,0,0,0c-0.1,0-0.2,0-0.2-0.1
		c0-0.9-1.5-0.2-2.2-0.9c0.2-0.2,0.8,0,0.6-0.1c-0.3-0.4-0.8-0.1-1.3,0l0.2-0.3l-2.1-0.2c0-0.9-1.8-0.5-1.5-1.1
		c-0.7-0.3,0.4,0.6-0.5,0.3c-0.1-0.4-0.8-0.1-0.6-0.6h0.1l-0.6-0.2l0.6-0.4c-0.5-0.1-1.1,0.2-1.3,0.7c-0.4-0.5-1.2-0.5-1.2-1.1h0.2
		c-1.4-0.3-1.8-2.3-3.1-1.8c0-0.1,0-0.2,0.2-0.2l-0.8-0.3l0.3-0.3l-1.6,0.1l0.1-0.3c-1.2-0.5-2.4-0.9-3.6-1.2h0.2
		c-1.5-0.1-1.2-0.7-2.2-0.8c0,0,0.1-0.1,0.1-0.1l-0.9-0.3l0.3-0.2c-0.8,0.3-1.5-1.4-1.3-0.8c-0.4,0.1-1.2,0.2-1.4,0.5
		c-0.9-0.3-0.1-0.4-0.6-0.9c-0.7-0.3-1,0.1-1.8-0.4l0.1-0.3c-0.5,0-0.9-0.1-1.4-0.2h0.2c-1.2,0.2-0.9-1.3-2.1-0.4
		c-0.3-0.4-1.2-0.5-0.9-1c-1.2-0.1-2.4-0.3-3.6-0.5c0.1-1-0.3,0-0.8-0.8l-0.1,0.5c-1.7-0.6-3.2-2.5-5.2-3l0.1-0.5l-0.6,0.4l-0.7-0.4
		l-0.4-0.2l-0.1-0.1l-0.2-0.2c-0.1-0.1-0.2-0.2-0.3-0.3c-0.3,0.2-1.1,0.5-1.1,0.3h0.1h-0.2c0,0-0.1,0-0.1-0.1c0-0.1-0.1-0.1-0.1-0.2
		c0-0.2,0.1-0.4,0.3-0.5l0.5-0.1c-0.6,0,0-0.2,0-0.2h-0.4c-0.5-0.1,0-0.2,0.4-0.2c-0.2-0.2-0.4-0.3-0.5-0.5h0.2
		c-0.1,0-0.2-0.1-0.2-0.1l0.7-0.2c-0.1-0.2,0-1.2-0.5-1.7c0.2,0,0.6-0.6,0.6-0.1l1.1-2.4l-0.4,0.3c-0.5-0.1-0.5-1-0.1-1.3
		c0.2,0.7,0.7,0.3,1.1,0.2c-0.1-0.4-0.5,0.1-0.7-0.2c-0.2-0.6,0-1.5,0.3-1.6l0.1,0.3c0-0.7,0.9-0.6,1.2-1.1
		c-0.2-0.7,0.3-0.9-0.5-1.1c0.1-0.8,0.6,0,0.8-0.2c-0.2-0.5,0.5-1.4,0.9-1.3c-1-0.9,1.3-1.8,0.4-2.3l0.8-0.3
		c-0.2-0.1-0.8-0.5-0.6-1.1c0.5-0.3,0.9,0,1.2,0L39,91.6c2.3-2.1,3.4-5.8,5.8-8.2c0.4-1.6,1.1-3.1,1.9-4.6v0.2l1.1-1.3l-1,0.8
		c0-0.3,0.1-0.7,0.2-1c1.6-1.5,2.9-3.4,3.7-5.5c-0.3-1.9,1.4-0.3,1.4-2c0,0.2,0.2,0.3,0.2,0.4c0.4-1.3,0.7-2.7,0.9-4.1
		c0.9,0.8,0.5-0.9,1-0.4l-0.3-0.4c0.4-0.1,0.9-0.8,1.2-0.5l-0.2-0.9l0.5,0.2c0.5-0.8,1.1-2.6,2.3-2.5c0.5-2.3,2.5-5.2,4.1-7.5
		c0-0.7,0.2-1.3,0.5-1.8l0.9-0.3c0.2-0.7-0.2-1.6,0.5-2c0.1,0,0.1,0.1,0.1,0.1c0.2-0.6,0.8-1,0.7-1.8c0.4-0.6,1-1,1.4-0.6
		c-0.8-0.6,0.9-1.2,0.9-1.2S88,16.2,88.1,5.5C87.8,5,88,4.1,87.3,4.1c0.2-0.7,1.1-0.5,0.7-0.8c-0.7,0.6-1-0.9-1.9-0.5l0.2-0.5
		c-0.2-0.3-0.1,0.9-0.5,0.4l0.7,0.6c-0.3,0.3-0.6,0.4-1,0.4c0,0.6,1,1.5,0,2l0.1-0.3c-0.4,0.7-0.8,0.1-1,0.2l0.1-0.2L84,5.8
		c0.5-0.3,0.3-1.4,0.2-1c-0.7,0.7,0.3-0.1,0,0.6c-0.2,0.4-0.6,0-0.8-0.1L83,6c-0.3-0.2,0.3-0.5-0.2-0.4l-0.2,1.1
		c-1-0.4-0.1,1.2-1.2,1.1C81.5,7,81,7.7,80.8,7.4L79.9,9c-0.2,0-0.1-0.6-0.1-0.3c-0.4,0.1-0.1,0.6-0.2,0.8c-0.3,0-0.7,1.2-1.3,0.8
		c-1,0.8,0.5,1-0.4,1.7c-0.5-0.1,0.4-0.8-0.3-0.6l-0.5,1.1c-0.1-0.2-0.5-0.6-0.2-0.9c-2.2,2.5-5,2.8-6.1,5.6
		c-0.7,0.1-0.2-0.4-0.3-0.9c-0.5,2.2-2.5,2-3.4,3.6l0.3,0.2c-2.4,1.5-3.3,4.5-5.3,6.7l0.4-0.1c0,0.6,0,1.1-0.2,1.6
		c-0.2,0-0.6-0.8-0.9,0.1c0.2-0.1,0.5-0.3,0.7-0.1c-2.2,1.5-4.7,6.1-7.2,9.4c-2.5,4.9-6.3,9.6-8.9,14.3c0.4-0.7,1.1,0.1,0.6,0.5
		c-2.4,0.5-1.3,2.7-3.2,3.5c-1.1,3-3.9,4.6-4.3,7.8l-0.5-0.2c-0.4,0.3-0.2,0.6-0.4,1l-0.1-0.1c-0.7,0.8-1,2.2-1.5,2.7l0.5,0.3
		c-0.3,0.6-0.5,0-0.6,0.8l-0.2-0.2l0.1,1c-0.8-0.6-1,1.6-1.7,1.8c-0.3,1.2-0.8,2.4-1.5,3.5c-0.6,0-1.3,1.3-2.1,2.1
		c-1,2.3-2.1,4.5-3.4,6.6l0.6,0.3L28.2,84c-0.1-0.1-0.2,0-0.2-0.2c-0.9,0.1-0.5,1.5-1.1,1.8c0.7-0.1,0.3-0.4,0.5-0.7
		c0.5-0.3,0.8,0.4,0.2,0.9l-0.1-0.1l0,0.6c-0.5-0.2-0.9,0.1-1.4,0c-0.9,2.1-0.7,3.8-1.8,5.8c-0.4-0.4-0.5,1.6-1.2,0.8
		c-0.2,1.4,0.8,0.1,1.2,1c-0.2,0.3-0.1,0.8-0.4,0.8c-0.1-0.3-0.7,0.1-0.6-0.3l-0.3,0.9c-0.1,0-0.1-0.2-0.2-0.3
		c-0.1,0.9-0.5,1.7-1,2.4c-0.5,0.7-0.8,1.5-0.9,2.3c0.3,0.2,0.3-0.6,0.6-0.4c0.1,1.9-1.1,1.2-1.1,2.9l-0.4-0.5
		c0.1,0.3,0.2,0.5,0.2,0.8c-0.1,0.5-0.3,1.1-0.6,1.5c-0.3,0-0.4-0.3-0.3-0.7c0-0.2,0.1-0.5,0.1-0.7c0-0.1,0-0.2,0-0.3
		c0-0.1,0-0.1,0-0.2l-0.1,0.3l-0.1,0.5c-0.1,0.3-0.1,0.7-0.2,1c-0.1,0.7,0,1.2,0.3,0.8c-0.2,0.8-0.5,1.6-1,2.3
		c0.1,0,0.7-1.1,0.8-0.4c-0.8,2-1.4,4-1.9,6.1c-0.2,0-0.4,0.2-0.5,0C17.3,114,15.9,114.4,15.6,116.6z"/>
</g>
<g id="logo">
	<polygon id="base_1_" class="st2" points="145,74.7 105.4,114.2 80,152.5 54.6,114.2 15,74.7 35,54.9 40.4,3.5 64.9,39.9 80,37.3 
		95.2,39.9 119.6,3.5 125,54.9 	"/>
	<g id="base_2_">
		<path class="st1" d="M119.6,3.5l5.4,51.4l20,19.7l-39.6,39.5L80,152.5l-25.4-38.3L15,74.7l20-19.7l5.4-51.4l24.4,36.4L80,37.3
			l15.1,2.6L119.6,3.5 M121-2.2l-3.1,4.6L94.2,37.7l-13.9-2.4L80,35.2l-0.3,0.1l-13.9,2.4L42.1,2.4L39-2.2l-0.6,5.5L33.1,54
			L13.6,73.3l-1.4,1.4l1.4,1.4L53,115.4l25.3,38.2l1.7,2.5l1.7-2.5l25.3-38.2l39.4-39.3l1.4-1.4l-1.4-1.4L126.9,54l-5.3-50.7
			L121-2.2L121-2.2z"/>
	</g>
	<polygon id="nose" class="st3" points="80,152.3 71.5,139.4 88.5,139.4 	"/>
	<polygon id="eye-l" class="st4" points="50.3,62.5 71.5,76.2 71.5,101.5 65,74.5 	"/>
	<polygon id="eye-r" class="st4" points="110.5,62.5 89.3,76.2 89.3,101.5 95.8,74.5 	"/>
	<polygon id="ear-l" class="st1" points="46.8,30.4 45,48.2 55.5,43.3 	"/>
	<polygon id="ear-r" class="st1" points="114,30.4 115.8,48.2 105.3,43.3 	"/>
</g>
</svg>
