<svg xmlns="http://www.w3.org/2000/svg" viewBox="0 0 141.82 160.19">
  <g id="Layer_2" data-name="Layer 2">
    <g id="Layer_1-2" data-name="Layer 1">
      <g>
        <g>
          <path d="M96.93,142.28a1.14,1.14,0,0,0,.15-.23A.69.69,0,0,0,96.93,142.28Z" transform="translate(0 -1.48)" fill="#fff"/>
          <path d="M79.17,132.71l.27,0C79.29,132.64,79.22,132.66,79.17,132.71Z" transform="translate(0 -1.48)" fill="#fff"/>
          <path d="M107.75,147.65s0,0,0,0l.76.37Z" transform="translate(0 -1.48)" fill="#fff"/>
          <path d="M41,113.23l.25.11C41.11,113.29,41.05,113.23,41,113.23Z" transform="translate(0 -1.48)" fill="#fff"/>
          <path d="M63.49,125a.55.55,0,0,1-.38,0C63.25,125.12,63.38,125.16,63.49,125Z" transform="translate(0 -1.48)" fill="#fff"/>
          <path d="M111.45,155.33l-.17-.49A.41.41,0,0,0,111.45,155.33Z" transform="translate(0 -1.48)" fill="#fff"/>
          <path d="M123.37,158.58v-.09S123.35,158.55,123.37,158.58Z" transform="translate(0 -1.48)" fill="#fff"/>
          <path d="M119.52,155.35a1.7,1.7,0,0,0-.38,0C119.28,155.41,119.45,155.49,119.52,155.35Z" transform="translate(0 -1.48)" fill="#fff"/>
          <path d="M119,155.39l.19,0C119.05,155.35,119,155.33,119,155.39Z" transform="translate(0 -1.48)" fill="#fff"/>
          <path d="M83.06,5a1.76,1.76,0,0,0,.16-1.09Z" transform="translate(0 -1.48)" fill="#fff"/>
          <path d="M19.22,101.07l.14.07A.61.61,0,0,0,19.22,101.07Z" transform="translate(0 -1.48)" fill="#fff"/>
          <path d="M80.65,2.66l.21-.15A.35.35,0,0,0,80.65,2.66Z" transform="translate(0 -1.48)" fill="#fff"/>
          <path d="M105.06,153.75c-.47.2-1-.49-1.1-.15C104.33,153.69,104.71,154.15,105.06,153.75Z" transform="translate(0 -1.48)" fill="#fff"/>
          <path d="M9.92,87.71l.1-.23A1.21,1.21,0,0,0,9.92,87.71Z" transform="translate(0 -1.48)" fill="#fff"/>
          <path d="M80.65,2.66l-.25.18.21,0A.33.33,0,0,1,80.65,2.66Z" transform="translate(0 -1.48)" fill="#fff"/>
          <path d="M39.56,68.11v0Z" transform="translate(0 -1.48)" fill="#fff"/>
          <path d="M41.31,66.75l-.17.44A.43.43,0,0,0,41.31,66.75Z" transform="translate(0 -1.48)" fill="#fff"/>
          <path d="M83.22,3.89l.09-.62A1.58,1.58,0,0,0,83.22,3.89Z" transform="translate(0 -1.48)" fill="#fff"/>
          <path d="M54.57,47.75a.72.72,0,0,0-.09.2A.32.32,0,0,0,54.57,47.75Z" transform="translate(0 -1.48)" fill="#fff"/>
          <path d="M64.89,125.88A.93.93,0,0,0,65,126C65.08,126,65.09,125.9,64.89,125.88Z" transform="translate(0 -1.48)" fill="#fff"/>
          <polygon points="46.2 126.79 46.19 126.78 46.19 126.79 46.2 126.79" fill="#fff"/>
          <path d="M47.17,128.21c-.21-.19-.67-.11-1,.06A1.06,1.06,0,0,0,47.17,128.21Z" transform="translate(0 -1.48)" fill="#fff"/>
          <path d="M44.61,127.32l.07.09A.22.22,0,0,0,44.61,127.32Z" transform="translate(0 -1.48)" fill="#fff"/>
          <path d="M60,135.17l0,0,0,0Z" transform="translate(0 -1.48)" fill="#fff"/>
          <path d="M56.84,133.82a.52.52,0,0,0-.14-.25A.52.52,0,0,0,56.84,133.82Z" transform="translate(0 -1.48)" fill="#fff"/>
          <path d="M36.46,124.69v0s0,0,0,0Z" transform="translate(0 -1.48)" fill="#fff"/>
          <path d="M.14,109.45l-.08.28,0,.14,0,.07.07,0,.55.25,1.15.52,2.38,1L9,113.91c1.6.7,3.16,1.4,4.64,2.1l1.37.63c.38.18.75.38,1.1.57,1-.39,1.89,0,2.89.32l-.35,1,.91.07c.18.43-.67-.11-.29.51l.57-.44c-.1.36,1.87,1.17.26,1.21l3,1.44c.65.34.75-.59,1.37,0,0,.34-.35.06-.44.42,1.87,1.73,3.38-.58,5.23.81l-.23,0c.46-.08,1.11.27,1.18.14.18-1.06-.61.33-1-.52.43-.75,1,0,1.22-.67.34.51.84.2,1.28.35.48.83,1.67,1,1.91,1.83.47-.08,1.22-.67,2-.35.24.87-.41.53.22,1.1l.33-.4c.57.36.41.44.29.64.63.33.83-.37,1.5.3l-.66.23a4.91,4.91,0,0,1,1.7.72c-.15.26-.47.08-.68-.11.14.89.91.07,1.12.26,0-.23-.51-.59,0-.91.37.28,1.17-.21,1.21.47l-.66.23c1,0,.73-.36,1.63.28-.07,0-.09.14-.16.22.9-.29,1.47.62,2.37,1.09l-.23,0c.44,0,.83-.29,1-.17-.4-.5-.2-.57,0-1,.34,1.08,1.46-.38,2.39.59-.14.25-.56.44-.74,0-.75.59-1.1,1.23-2,1.27.51,0,1.07.15.81.42l.47-.66a6.32,6.32,0,0,1,.65.34c.33-.41-.18-1,.56-1s0,.9.28.63c1.07.14.75-.6,1.54.06-.12,0-.35.06-.4,0,.52.59,1.65.6,1.44,1.56-.18.15-.32.4-.53.21l.07-.13c-1,.3.67.11.09.79.17-.49,1,0,1.4.31l.11-.59c2.1-1-.55,1,.89,1.43,1,0-.26-.3.44-.43.54.36.54.93,1.5,1.09a1.77,1.77,0,0,1,.26,1.44c.62,0,1.45,1,2,.53-.65-.9-1.16.22-1.84-1l.55-.45c.7.36,1.75.48,2.15.92a.39.39,0,0,1,.09-.43c1.12.25,1.68-.2,2.59.43-.12.59-.65.24-1.1.09.45.72.66.34,1.57,1-.16.49-.66-.33-1,.07L60,135a.3.3,0,0,0,0,.1c.51-.71.8.44,1.58.51,1.59.73,2.3-.21,3.46-.44.15.32.13.55-.06.7-.24-.52-.29-.22-.52-.07.58.16.83,1.29.39,1.47,1,.16-.12-.55.51-.56l1.15.58c0-.46-.34-.73.41-.77a5.23,5.23,0,0,1,1.42.64c-.18.15-.06.7-.55.45a.84.84,0,0,0,1.12.24c-.57-.69,1.35.19,1.08-.68l.57.69c-.16-.08-.3.18-.51,0-.06.7.68.1,1,.15.2.23.85.58.8.84a.77.77,0,0,1,.78.68c.39,0,.2-.38.39-.53l1.14.57c-.09.36-.4,1.34-.63,1.39.58-.12.59-.93,1.25-.6-.67.48.66.89-.24,1.42.18.65,1.28,1.11,2,1.21.6-.35-.53-.58-.25-1.1,1.77.56,2.52-.85,3.65,0l-.26-.29A2.23,2.23,0,0,0,81,141.4c-.5.56.1,2.16,1.44,2.57.25-.28-.44-.94,0-1.37l.89.27c0,.08-.1.15-.25.19.86.09,1,1.47,1.59.79l.35,1.3-.12-.54c.25-.28,1.14,0,1.37-.06,1,0,1.22.44,1.51,1.07,0-.34-.14-1.12.59-.93-.47,1.07,1.26,1,1,1.57.28.1.63.65.85.22l-.33.64c.47-.9,1.45-.42,2.3-.25-.72,1.18.89.26.74,1.56.51-.79,1.51.25,2-.42.61.22.21,1,.25,1.33l.41-.2c.13.53,1.22,1.07,1.77,1.63l.94-.49.08.44c.18-.15.74-.05.54-.46l.32.18c.38-.81.56,0,1.39-.09a.3.3,0,0,1-.22.43c.33.15,0,.51.07.86-.15-.31,1.83-1,1.09-1.72.08-.37.71-.39,1-.1l-.11.83.72-.62c.56.11.58.68,1,.94-.44-.13-1.55,1-.44,1.48a3.41,3.41,0,0,0-1.45.17c.22.12.3.24-.19.41,1,.13.48-.33,1.37-.07-.32.65-.18,1,.47,1.5l-.35-.72a.47.47,0,0,1,.18-.13c-.18-.16-.19-.29-.13-.57.17.08,1.34-.41,1.31.06-.42-1.4,1.83-.18,1.55-1,.18-.16.79.06.71.42-.93.2.22,1-.1,1.4.35-.08-.35-.73.12-.84.44.14.58.68.73,1l-.23.05.53.58c.24-.29-.4-.84.28-.75.1.2.77.28.64.54-.48.34-.52,1-1.08.93.44.13,1.84.63,1.55-.23l.5.24c-.2-.42-.89-1.3.17-1l-.06.13.92-.21.17.48c.06-.17.23-.28.49-.16,0,.23.2.41.07.67.78.29.86-.08,1-.23.45.13.55.34.19.65.55.33,1.61.67,1.86,1.19.91,0-.1-.21.54-.47.2,1.45,2.41,1.53,3.75,1.91.07-1.16.4,0,1-.8-.41.2.89,1.29-.35,1.11l.73.18c.23.75-1.31,0-.92,1,.79.29,1.75-.63,2.5.12-.6.6.79,0,.24.75-.29.19-.51,0-.79-.05l.1.21c1.6.9.84-.65,1.92-.79,1.07.33.58.91.5,1.27.1.21.66.31,1,.23-.81.18-1-.93-.5-1.27.12,1,1.5.7,1.91.48-1.11-1.47-1-.45-2-2-.3.19-.57.94-1.27.3.67-.16.13-.43,0-.61,0,.49-.65-.06-1,0-.09-.44.9-.78.13-1.3l-.57.94c-.26-.29.44-.68-.35-.73.59-.36.22-.85,1.22-.63-.77-1.31-1.91-.24-2.93-.24.11,0,.18-.15.29-.19-.29.19-.63,0-.91,0-.48-.47.64-.27.61-.6l-.94-.36a.14.14,0,0,1,0-.09c-.3,0-.57,0-.55-.25a9.49,9.49,0,0,0,.95-.68l-1.27.29c.24-.28-.57-.9.22-.86l-1.5-.46.16-.72c-.4,0-.46.1-.08.36-.43-.36-2.69.26-1.87-1-1.37.08-1.69-.3-3.2-.54,1.31-.18-.89-1.3.35-1.12-.53-.57-1,.1-1.53,0-.37-.49.13-1.06.75-1.09l-.74,0,.07-.13-.7.16c-.41-.6.17-.73-.38-1.07l-.38.55-.24-.52c0,.34-.37.31-.81.18l.06-.13-.56-.1c.66-.15-.42-.33,0-.66a5.07,5.07,0,0,0-1.29-.44l0,.47c-1.18-.09.21-.62-.61-1l-.15.49c-.87-1.31-2.24-.43-2.91-1.32.56.11.66-.49.59-.36-.84-.16-2-.82-3.08-.59a1.72,1.72,0,0,0-.67-1.69c-.61-.21-.73-.18-1.09.12-.46-.51-1.71-.58-1.53-1.08-.3.33-.48-.31-.94-.11l0-.23-.15.49c-.57-1.49-2-.16-2.61-1.51l.23,0H93c0-.24.25-.29.38-.54l-2-1,.24.52c-.44-.13-.92.19-1.28-.3,1.11-.35-.65-.32-.55-.92h.51c-.61-.22-.61-.22-.76.27-.84-.17-.14-1.11-1.06-.92l.49.24c0,.34-.5.56-.83.41,0-.11-.19-.42.09-.37-.68-.08-1.48-.72-1.82-.65a.37.37,0,0,1,.22-.62c-1.47-.15-.54-.34-2-.5l.14-.25-.58.12-.39-.84.08.45c-.44-.14-.79-.07-1.21-.44l.37-.31c-1.29-.31-1.09-1.26-2.46-1.21,0-.11.18-.15.3-.18-1.32.16-.48-1-1.87-.76.13-.1.08-.31.17-.41l-.59,0,.27-.51-.73.61-.06-.68-.3.17c-.06-1.23-1.12-.8-1.48-1.87l-.18.72c-2.38.6-3.69-2.57-6.1-2.89l.28-.5-1.16.22c-.28-.63.48-.32.46-.66-1.07-.13-.74.6-1.9.26-.4-.61.37-.3.72-.37A7.51,7.51,0,0,1,65,126c0,.07-.13.14-.11.19a10.07,10.07,0,0,1-2.35-1c.13-.23.34-.19.55-.15-.26-.15-.55-.49-.9-.35l.49-.32c-.53-.36-1.83-.45-1.71-1a.46.46,0,0,1-.72.36c.09-.93-1.51-.28-2.11-1.08.18-.14.79.08.63,0-.31-.4-.84-.19-1.3-.1l.25-.27-2.06-.41c.09-.93-1.81-.69-1.41-1.21-.65-.34.39.61-.49.31-.07-.44-.83-.18-.56-.69l.12,0-.6-.23.6-.34a1.35,1.35,0,0,0-1.37.6c-.34-.51-1.13-.59-1.13-1.16l.23,0c-1.43-.42-1.57-2.44-3-2.06,0-.11,0-.23.18-.15l-.81-.42.38-.29-1.65,0,.14-.25a25.39,25.39,0,0,0-3.53-1.52l.23,0c-1.46-.19-1.11-.82-2.17-1a.27.27,0,0,1,.15-.07l-.84-.38.31-.17c-.89.28-1.42-1.56-1.27-.91-.46.09-1.21.1-1.46.38-.92-.41-.06-.45-.52-.93-.65-.34-1,0-1.76-.6l.15-.25a13.34,13.34,0,0,1-1.39-.33l.23,0c-1.2.1-.81-1.33-2.1-.54-.29-.4-1.12-.6-.84-1.11a32.53,32.53,0,0,1-3.6-.85c.23-1-.27-.06-.75-.89l-.16.48c-1.68-.73-3-2.78-4.94-3.48l.17-.48-.61.33-.72-.45-.35-.22-.06-.07-.18-.24a1.13,1.13,0,0,0-.32-.31c-.32.14-1.18.4-1.16.21l.11,0c-.1,0-.15,0-.17,0a.27.27,0,0,1-.08-.07.37.37,0,0,1-.08-.19.58.58,0,0,1,.3-.48c.22,0,.39,0,.53,0-.58-.08,0-.15.05-.17a3,3,0,0,0-.42,0c-.46-.16.07-.24.44-.14A4.66,4.66,0,0,1,19,101a.91.91,0,0,1,.21,0,.57.57,0,0,1-.22-.16l.76-.09c-.05-.22.14-1.15-.31-1.68.23,0,.68-.52.57,0l1.28-2.3-.39.27c-.49-.18-.42-1,0-1.3.13.66.63.36,1.07.32-.08-.44-.54.08-.71-.21-.1-.56.17-1.5.48-1.61l.07.33c.1-.64,1-.48,1.27-1-.1-.68.42-.85-.4-1.17.22-.78.66,0,.86-.17-.2-.53.58-1.37,1-1.27-.9-1,1.46-1.63.61-2.31l.86-.26c-.24-.16-.73-.6-.55-1.12.53-.27.9.09,1.23.11L26,86.59c2.49-1.88,3.92-5.53,6.54-7.67a19.43,19.43,0,0,1,2.36-4.39v.23l1.21-1.21L35,74.27a2.8,2.8,0,0,1,.33-1,15.28,15.28,0,0,0,4.26-5.13c-.12-1.94,1.47-.16,1.59-1.85,0,.17.13.31.16.47a19.68,19.68,0,0,0,1.25-4c.88.87.57-.83,1-.34l-.32-.4c.45-.1,1-.69,1.23-.38l-.09-.93.45.26c.56-.71,1.38-2.53,2.5-2.31.71-2.27,3-5,4.83-7.16a3,3,0,0,1,.71-1.8l.9-.2c.23-.64,0-1.65.7-1.91a.18.18,0,0,1,.09.15c.29-.61.93-.93.84-1.77.46-.57,1.14-.95,1.47-.43-.78-.66,1-1.17,1-1.17S82.07,15.6,83.06,5c-.22-.55,0-1.42-.65-1.51.24-.64,1.13-.36.8-.76-.8.52-.88-1-1.9-.65l.24-.53c-.22-.3-.13.86-.57.36l.66.68a1.23,1.23,0,0,1-1,.31c0,.56.9,1.53-.15,2l.12-.26c-.46.69-.79,0-1,.1l.11-.15-.79.29c.57-.24.47-1.39.25-1-.8.64.33-.07,0,.59-.23.4-.56,0-.78-.19L77.88,5c-.33-.28.35-.43-.21-.42l-.25,1.11c-1-.49-.25,1.23-1.36,1,.23-.76-.34-.16-.55-.47l-1,1.52c-.23,0,0-.59-.11-.33-.45.1-.12.61-.24.76-.33-.05-.8,1.11-1.35.64-1.13.72.43,1-.59,1.66-.45-.14.46-.8-.21-.66l-.58,1.07c-.11-.21-.44-.61-.1-.92C68.9,12.23,66,12.27,64.7,15c-.67,0-.11-.45-.21-.9-.71,2.16-2.72,1.77-3.76,3.29l.33.28c-2.6,1.27-3.77,4.23-5.93,6.23l.44-.1a3.83,3.83,0,0,1-.36,1.61c-.22-.07-.55-.83-.9,0,.23-.05.57-.24.68,0-2.38,1.33-5.26,5.73-8.11,8.7-3,4.64-7.23,9-10.22,13.5.46-.68,1.12.23.55.59-2.47.3-1.5,2.56-3.53,3.23-1.4,2.9-4.34,4.24-5,7.44l-.45-.26c-.45.22-.23.53-.46.94l-.11-.1c-.8.78-1.17,2.15-1.74,2.53l.45.37c-.35.56-.56,0-.69.75l-.22-.18,0,1c-.77-.65-1.14,1.46-1.82,1.63a11.47,11.47,0,0,1-1.83,3.32c-.56-.09-1.47,1.21-2.26,1.92-1,1.72-2.45,4.19-4,6.27l.58.31-.32.59c-.12-.08-.23,0-.23-.17-.91,0-.63,1.43-1.3,1.65.68,0,.32-.35.54-.67.55-.3.81.47.15.94l-.11-.09,0,.61c-.47-.21-.91.06-1.37-.15-1.05,2-1,3.73-2.35,5.63-.39-.49-.66,1.53-1.31.65-.33,1.41.81.18,1.13,1.06-.19.34-.14.82-.5.71-.13-.27-.68,0-.62-.32l-.35.87c-.1,0-.14-.2-.15-.32a5.14,5.14,0,0,1-1.2,2.32,4.6,4.6,0,0,0-1.08,2.25c.28.26.38-.58.66-.32-.06,1.86-1.24,1.12-1.39,2.83l-.33-.51a5.88,5.88,0,0,1,.16.82,3.1,3.1,0,0,1-.71,1.45c-.33,0-.33-.3-.23-.74.06-.22.12-.47.19-.71s.06-.26.07-.34a1.15,1.15,0,0,0,0-.19l-.12.28-.2.52A9.12,9.12,0,0,0,4.89,97c-.15.69-.15,1.15.25.84C4.91,99,4.27,99.36,3.88,100c.14,0,.77-1,.81-.33a39.4,39.4,0,0,0-2.41,5.92c-.16,0-.46.21-.48,0C2.15,107,.7,107.23.14,109.45Z" transform="translate(0 -1.48)" fill="#fff"/>
          <path d="M60.35,135.44l-.37-.27a.44.44,0,0,1-.38.29Z" transform="translate(0 -1.48)" fill="#fff"/>
          <path d="M41.45,126.36a.6.6,0,0,0-.21.08A.2.2,0,0,0,41.45,126.36Z" transform="translate(0 -1.48)" fill="#fff"/>
          <path d="M36.4,125.14c.38,0,.16-.24.06-.45A.56.56,0,0,0,36.4,125.14Z" transform="translate(0 -1.48)" fill="#fff"/>
          <path d="M71.81,138.88a.27.27,0,0,0-.21.19A.29.29,0,0,0,71.81,138.88Z" transform="translate(0 -1.48)" fill="#fff"/>
          <path d="M101.72,152.33l-.08-.14A.19.19,0,0,0,101.72,152.33Z" transform="translate(0 -1.48)" fill="#fff"/>
          <path d="M100.41,150.78a.85.85,0,0,0-.38-.07A.49.49,0,0,0,100.41,150.78Z" transform="translate(0 -1.48)" fill="#fff"/>
          <path d="M64.46,135.84a.49.49,0,0,0-.39,0A.42.42,0,0,0,64.46,135.84Z" transform="translate(0 -1.48)" fill="#fff"/>
          <path d="M99.64,150.68l-.4-.24,0,.1Z" transform="translate(0 -1.48)" fill="#fff"/>
          <path d="M102.22,152.62a3.45,3.45,0,0,1-.5-.29A.53.53,0,0,0,102.22,152.62Z" transform="translate(0 -1.48)" fill="#fff"/>
          <path d="M83.12,143.06h-.05C82.64,143.14,82.89,143.13,83.12,143.06Z" transform="translate(0 -1.48)" fill="#fff"/>
          <polygon points="97.4 149.33 97.36 149.29 97.17 149.38 97.4 149.33" fill="#fff"/>
          <path d="M104,153.6a.39.39,0,0,0-.26,0l.22.16A.35.35,0,0,1,104,153.6Z" transform="translate(0 -1.48)" fill="#fff"/>
          <path d="M89.06,146.62a1.12,1.12,0,0,0,.35-.36C89.27,146.2,89.14,146.25,89.06,146.62Z" transform="translate(0 -1.48)" fill="#fff"/>
        </g>
        <g>
          <polygon points="141.08 74.35 99.01 113.83 72 152.16 44.98 113.83 2.9 74.35 24.2 54.61 29.91 3.18 55.89 39.54 72 36.94 88.1 39.54 114.07 3.18 119.79 54.61 141.08 74.35" fill="#f7941d" stroke="#fff" stroke-miterlimit="10"/>
          <g>
            <polygon points="40.37 60.18 62.91 73.88 62.91 99.17 56.04 72.17 40.37 60.18" fill="#231f20" stroke="#231f20" stroke-miterlimit="10" stroke-width="4"/>
            <polygon points="104.45 60.18 81.91 73.88 81.91 99.17 88.79 72.17 104.45 60.18" fill="#231f20" stroke="#231f20" stroke-miterlimit="10" stroke-width="4"/>
          </g>
          <polygon points="36.75 30.06 34.77 47.87 45.98 42.99 36.75 30.06" fill="#fff"/>
          <polygon points="108.09 30.06 110.06 47.87 98.85 42.99 108.09 30.06" fill="#fff"/>
          <polygon points="71.99 151.93 62.92 139.06 81.07 139.06 71.99 151.93" fill="#231f20"/>
        </g>
      </g>
    </g>
  </g>
</svg>
