<svg xmlns="http://www.w3.org/2000/svg" viewBox="0 0 186.5 186.5"><g id="Layer_2" data-name="Layer 2"><g id="Layer_1-2" data-name="Layer 1"><circle cx="93.25" cy="93.25" r="93" fill="#bcbec0" stroke="#231f20" stroke-miterlimit="10" stroke-width="0.5"/><polygon points="162.41 92.68 120.34 132.16 93.33 170.49 66.31 132.16 24.23 92.68 45.53 72.94 51.25 21.51 77.22 57.88 93.33 55.28 109.43 57.88 135.4 21.51 141.12 72.94 162.41 92.68" fill="#f7941d" stroke="#231f20" stroke-miterlimit="10" stroke-width="2"/><polygon points="61.71 78.52 84.25 92.22 84.25 117.5 77.38 90.5 61.71 78.52" fill="#231f20" stroke="#231f20" stroke-miterlimit="10" stroke-width="0.5"/><polygon points="51.07 21.51 73.65 57.31 77.05 57.88 51.07 21.51" fill="#b8babc" stroke="#231f20" stroke-miterlimit="10" stroke-width="0.5"/><polygon points="52.25 37.73 49.37 67.97 52.25 65.09 52.25 37.73" fill="#939598" stroke="#231f20" stroke-miterlimit="10" stroke-width="0.5"/><polygon points="125.79 78.52 103.25 92.22 103.25 117.5 110.12 90.5 125.79 78.52" fill="#231f20" stroke="#231f20" stroke-miterlimit="10" stroke-width="0.5"/><polygon points="135.58 21.51 113 57.31 109.61 57.88 135.58 21.51" fill="#b8babc" stroke="#231f20" stroke-miterlimit="10" stroke-width="0.5"/><polygon points="134.25 37.73 137.13 67.97 134.25 65.09 134.25 37.73" fill="#939598" stroke="#231f20" stroke-miterlimit="10" stroke-width="0.5"/></g></g></svg>