<svg xmlns="http://www.w3.org/2000/svg" xmlns:xlink="http://www.w3.org/1999/xlink" viewBox="0 0 181.2 181.2">
  <defs>
    <radialGradient id="Tin_Radial" data-name="Tin Radial" cx="90.6" cy="90.6" r="90.6" gradientUnits="userSpaceOnUse">
      <stop offset="0.01" stop-color="#c4c6c8"/>
      <stop offset="0.3" stop-color="#bcbec0"/>
      <stop offset="0.66" stop-color="#a7a9ac"/>
      <stop offset="1" stop-color="#9b9da0"/>
    </radialGradient>
  </defs>
  <g id="Layer_2" data-name="Layer 2">
    <g id="Layer_1-2" data-name="Layer 1">
      <circle cx="90.6" cy="90.6" r="90.6" fill="url(#Tin_Radial)"/>
      <g>
        <path d="M124.43,133.83a1.85,1.85,0,0,0,.06-.25A.43.43,0,0,0,124.43,133.83Z" fill="#fff"/>
        <path d="M103,130.87l.26-.11C103.14,130.77,103.07,130.81,103,130.87Z" fill="#fff"/>
        <path d="M137.28,135.21s0,0,0,.06l.91.09Z" fill="#fff"/>
        <path d="M57.45,125.5l.29,0A.6.6,0,0,0,57.45,125.5Z" fill="#fff"/>
        <path d="M84.44,129a.69.69,0,0,1-.38.16C84.23,129.14,84.38,129.13,84.44,129Z" fill="#fff"/>
        <path d="M143.83,141.18l-.35-.4A.44.44,0,0,0,143.83,141.18Z" fill="#fff"/>
        <path d="M157,140.18a.41.41,0,0,0,0-.08S157,140.16,157,140.18Z" fill="#fff"/>
        <path d="M152,138.45a3.28,3.28,0,0,0-.38.15C151.73,138.6,151.93,138.6,152,138.45Z" fill="#fff"/>
        <path d="M151.4,138.69l.17-.09C151.48,138.61,151.4,138.62,151.4,138.69Z" fill="#fff"/>
        <path d="M90.7,11.19A1.87,1.87,0,0,0,90.77,10Z" fill="#fff"/>
        <path d="M34.44,121.39l.14.06A.59.59,0,0,0,34.44,121.39Z" fill="#fff"/>
        <path d="M88,9.16l.2-.2A.54.54,0,0,0,88,9.16Z" fill="#fff"/>
        <path d="M136.84,141.86c-.4.36-1.15-.13-1.17.24C136.08,142.06,136.63,142.36,136.84,141.86Z" fill="#fff"/>
        <path d="M24.14,108.54l.08-.26A.79.79,0,0,0,24.14,108.54Z" fill="#fff"/>
        <path d="M88,9.16l-.23.22a.76.76,0,0,0,.21,0A.44.44,0,0,1,88,9.16Z" fill="#fff"/>
        <path d="M52.51,83.84h0l0,.11Z" fill="#fff"/>
        <path d="M54.16,82.14l-.13.48A.49.49,0,0,0,54.16,82.14Z" fill="#fff"/>
        <path d="M90.77,10l0-.66A1.47,1.47,0,0,0,90.77,10Z" fill="#fff"/>
        <path d="M65.82,60.25a1.42,1.42,0,0,0-.07.22A.31.31,0,0,0,65.82,60.25Z" fill="#fff"/>
        <path d="M86.16,129.3l.2.09C86.38,129.31,86.37,129.24,86.16,129.3Z" fill="#fff"/>
        <path d="M68.31,137.88Z" fill="#fff"/>
        <path d="M69.26,137.49c-.27-.1-.7.13-1,.39A1.11,1.11,0,0,0,69.26,137.49Z" fill="#fff"/>
        <path d="M66.37,137.53l.1.06Z" fill="#fff"/>
        <path d="M84.71,139.71v0a0,0,0,0,0,0,0Z" fill="#fff"/>
        <path d="M81.06,139.49a.72.72,0,0,0-.24-.18A.45.45,0,0,0,81.06,139.49Z" fill="#fff"/>
        <path d="M57.21,137.81h0Z" fill="#fff"/>
        <path d="M16,132.65l-.42,2.47-.1.63,0,.16s-.06.14,0,.12l.36,0,1.44.11,5.82.42c1.92.15,3.8.3,5.58.47s3.46.39,5.08.59c.18-.08.41-.15.56-.21a2.11,2.11,0,0,1,.34-.16,3.49,3.49,0,0,1,.74-.19c.51-.07,1.06-.07,1.61-.1l0,1,.94-.24c.34.34-.72.12-.1.57l.4-.6c0,.37,2.31.47.71,1.05l3.53.34c.78.11.54-.8,1.38-.47.15.31-.33.17-.29.54,2.52,1,3.17-1.69,5.54-1l-.21.11c.43-.23,1.21-.12,1.23-.27-.21-1.05-.48.52-1.16-.15.14-.86,1-.38,1-1,.54.36.91-.1,1.41-.11.79.61,2,.34,2.6,1.07.44-.24,1-1,1.86-1,.58.73-.21.63.64,1l.18-.49c.7.14.57.27.53.51.75.08.69-.63,1.61-.23l-.57.44a5.28,5.28,0,0,1,2,.11c0,.28-.44.23-.72.12.47.79.94-.24,1.22-.14-.07-.22-.73-.38-.36-.85.48.14,1.09-.59,1.38,0l-.57.44c1-.3.6-.58,1.74-.29-.06,0,0,.16-.08.27.79-.58,1.7.08,2.78.22l-.22.12c.46-.14.73-.56,1-.51-.6-.34-.42-.47-.43-1,.75.9,1.33-.85,2.62-.26a.43.43,0,0,1-.74.28c-.52.81-.64,1.53-1.49,1.86.53-.16,1.13-.23,1,.12l.22-.78c.31,0,.55.07.78.09.17-.49-.56-.87.18-1.14s.36.85.52.5c1.12-.22.52-.81,1.56-.46-.11.05-.33.17-.41.09.73.38,1.88,0,2,1-.13.2-.17.49-.45.38l0-.14c-.89.62.71-.13.38.7,0-.51,1.05-.31,1.52-.18l-.11-.59c1.75-1.61-.17,1.15,1.43,1,1-.31-.37-.19.28-.55.68.15.89.69,1.91.51a1.78,1.78,0,0,1,.8,1.27c.62-.22,1.81.43,2.21-.18-1-.63-1.09.6-2.23-.34l.39-.61c.83.1,1.93-.14,2.49.14a.37.37,0,0,1-.07-.43c1.22-.15,1.61-.76,2.75-.48.11.59-.56.44-1.06.45.71.53.78.1,1.93.38,0,.51-.78-.09-1,.4l1.3-.07a.37.37,0,0,0,0,.11c.25-.84,1,.14,1.78-.06,1.86.15,2.23-1,3.31-1.59.26.25.33.48.19.68-.43-.41-.37-.11-.54.1.63,0,1.32.94.94,1.26,1-.17-.33-.48.3-.7l1.37.16c-.14-.45-.61-.58.12-.86a6.28,6.28,0,0,1,1.67.11c-.13.21.2.68-.39.61.37.19,1,.25,1.21-.15-.82-.46,1.43-.28.84-1l.83.45c-.2,0-.24.27-.52.16.2.68.71-.14,1-.18.3.15,1.07.26,1.12.52a.85.85,0,0,1,1,.37c.41-.1.06-.43.2-.63l1.36.15c0,.37.09,1.39-.12,1.52.54-.31.25-1.07,1-1-.49.68,1,.62.29,1.42.42.55,1.7.61,2.41.47.47-.53-.74-.37-.66-.94,2-.08,2.22-1.67,3.65-1.29l-.37-.19c.93-.27.82-.2,1.38-.66-.3.7.9,2,2.4,1.93.15-.35-.79-.73-.51-1.29l1,0c.07.06,0,.17-.18.25.9-.2,1.59,1,1.9.21l.83,1.1-.33-.47c.15-.34,1.14-.39,1.36-.51a1.56,1.56,0,0,1,1.91.48c-.16-.3-.56-1,.24-1.06-.07,1.16,1.65.53,1.59,1.13.32,0,.87.39.94-.09l-.1.72c.14-1,1.31-.89,2.21-1-.27,1.36,1-.05,1.33,1.22.22-.92,1.61-.27,1.81-1.06.7,0,.58.86.74,1.17l.34-.33c.33.45,1.62.59,2.38.93l.76-.78.25.38c.12-.2.73-.29.37-.62l.39.07c.08-.89.56-.22,1.36-.56a.29.29,0,0,1-.07.48c.39,0,.2.48.4.79-.26-.24,1.48-1.54.45-2,0-.37.57-.61.94-.43l.2.82.49-.83c.61-.08.84.45,1.31.56-.49,0-1.17,1.5.11,1.54a3.75,3.75,0,0,0-1.39.65c.26.05.39.13,0,.46,1-.2.36-.48,1.35-.53-.09.72.18,1,1,1.25l-.62-.56a.48.48,0,0,1,.13-.19c-.24-.09-.3-.2-.34-.48.2,0,1.19-.84,1.33-.4-.93-1.17,1.78-.78,1.18-1.49.12-.21.81-.22.87.15-.86.5.58.85.42,1.35.32-.19-.62-.57-.19-.82.49,0,.83.44,1.09.68l-.21.12.75.36c.14-.35-.71-.64,0-.8.18.16.89,0,.85.3-.36.48-.14,1.15-.75,1.24.5,0,2.08,0,1.48-.74l.59.05c-.36-.32-1.37-.92-.18-1l0,.14.85-.5.34.39c0-.19.14-.35.44-.32.07.22.36.32.32.6.89,0,.83-.36,1-.57.49,0,.67.13.42.55.68.12,1.87.08,2.31.49.93-.29-.18-.16.38-.63.73,1.3,3,.62,4.47.52-.36-1.11.41-.1.72-1.1-.33.34,1.37.91.06,1.17l.8-.08c.52.62-1.33.4-.54,1.26.89,0,1.52-1.18,2.55-.73-.39.76.81-.23.52.62-.23.27-.52.17-.82.22l.18.16c1.94.31.6-.89,1.64-1.39,1.19-.05.91.65,1,1,.18.16.78.07,1.1-.13-.74.45-1.32-.54-1-1,.49.91,1.76.14,2.09-.19-1.65-1-1.17-.1-2.72-1.17-.23.27-.22,1.07-1.17.7.62-.37,0-.44-.18-.58.16.47-.67.17-1,.35-.25-.39.61-1-.35-1.27l-.22,1.08c-.37-.18.19-.79-.62-.56.45-.55-.1-.88,1-1-1.27-1-2,.42-3,.77.11-.07.13-.21.23-.28-.23.28-.62.25-.92.3-.65-.28.55-.47.39-.77l-1.08,0s0-.06,0-.08c-.29.13-.57.22-.66-.05a10.1,10.1,0,0,0,.71-1l-1.17.7c.14-.35-.91-.66-.09-.88l-1.68.07-.11-.73c-.41.11-.43.25,0,.36-.57-.19-2.6,1.17-2.23-.26-1.34.54-1.81.29-3.42.58,1.26-.61-1.36-.92-.05-1.17-.75-.36-.94.43-1.54.52-.55-.34-.27-1,.35-1.28l-.73.3,0-.15-.64.38c-.63-.42-.1-.73-.77-.87l-.18.64-.44-.4c.16.31-.25.42-.75.44l0-.14-.6.09c.61-.36-.54-.16-.25-.61a5.4,5.4,0,0,0-1.45,0l.14.45c-1.22.33,0-.65-1-.74l0,.51c-1.37-.93-2.41.36-3.42-.25.6-.08.48-.68.46-.54-.9.14-2.35-.07-3.31.49a1.77,1.77,0,0,0-1.3-1.35c-.69,0-.8.07-1,.48-.65-.32-1.93,0-1.93-.51-.18.42-.6-.11-1,.22l-.07-.22,0,.51c-1.12-1.2-2,.53-3.18-.53l.22-.12-.52.17c-.07-.23.15-.35.19-.64l-2.34-.23.44.41c-.5,0-.86.49-1.4.15,1-.71-.78-.08-.89-.68l.51-.17c-.69,0-.69,0-.66.52-.9.13-.56-1-1.41-.51l.58.06c.16.31-.29.7-.68.66-.08-.08-.35-.32-.05-.37-.71.15-1.74-.17-2.07,0a.35.35,0,0,1,0-.65c-1.52.35-.67-.14-2.2.21l0-.29-.54.31-.7-.66.24.39c-.49,0-.81.21-1.38,0l.26-.41c-1.4.15-1.56-.82-2.92-.3-.08-.09.13-.21.24-.27-1.26.59-.87-.82-2.16-.08.09-.14,0-.33,0-.45l-.58.24.09-.57-.52.82-.3-.62-.24.26c-.52-1.14-1.42-.37-2.19-1.25l.1.74c-2.17,1.36-4.67-1.17-7.2-.65l.08-.57-1.07.6c-.52-.5.36-.47.21-.78-1.12.24-.52.82-1.81.89-.63-.44.26-.41.58-.59a8.49,8.49,0,0,1-3.83,0c0,.08-.09.18,0,.21a10.72,10.72,0,0,1-2.74-.17c.05-.26.27-.29.49-.32-.31-.06-.73-.28-1,0l.37-.47c-.67-.15-2,.2-2.12-.4.07.23,0,.66-.58.59-.25-.91-1.62.25-2.52-.3.13-.2.82-.19.63-.22-.45-.26-.91.12-1.34.36l.15-.35-2.22.32c-.25-.91-2.07,0-1.87-.67-.77-.09.63.44-.37.47-.23-.39-.9.1-.82-.47l.11-.06h-.69l.48-.52a1.39,1.39,0,0,0-1.15,1c-.53-.36-1.35-.16-1.57-.7l.22-.12c-1.59.1-2.48-1.76-3.8-.91-.09-.09-.06-.23.13-.2l-1-.12.27-.41-1.67.52,0-.29a30.14,30.14,0,0,0-4.11-.23l.21-.12c-1.53.32-1.41-.4-2.54-.18a.24.24,0,0,1,.13-.11l-1-.08.24-.26c-.79.56-2-1-1.61-.43-.44.24-1.17.51-1.33.85-1.07-.06-.23-.39-.87-.69-.77-.1-.95.38-2,0l0-.29c-.5,0-.82.18-1.51.16l.21-.11c-1.17.5-1.31-1-2.3.19-.45-.27-1.36-.18-1.26-.75a38,38,0,0,1-3.93.42c-.13-1-.3,0-1.08-.59v.51a11.55,11.55,0,0,1-3-.84c-.52-.2-1.05-.38-1.58-.53l-.41-.09-.2,0-.13,0a.15.15,0,0,0-.13,0l.1-.5c-.05.18-.11.36-.18.55-.29-.28-.38-.49-.53-.51a6,6,0,0,1-.75.44c-.2.1-.31.08-.18-.07l.08,0c-.31,0-.43-.44,0-.83.22,0,.39,0,.54,0-.59,0,0-.16,0-.19l-.42.07c-.48-.1.06-.26.43-.21a2.6,2.6,0,0,1-.5-.25l.22,0a1.15,1.15,0,0,1-.25-.12h.35c.13,0,.26-.06.39-.08-.07-.22.09-1.24-.42-1.76.24,0,.63-.62.57,0,.34-.87.77-1.74,1.15-2.6l-.38.33c-.49-.12-.5-1.05-.13-1.38.19.69.66.3,1.1.21-.12-.46-.54.15-.73-.14a2.1,2.1,0,0,1,.4-1.77l.08.35c.07-.69,1-.65,1.21-1.27-.16-.7.37-1-.49-1.18.18-.86.68-.07.87-.3-.22-.53.5-1.53,1-1.49-1-1,1.38-1.92.47-2.52l.85-.39c-.26-.14-.79-.54-.65-1.12.52-.36.92,0,1.26-.05l-.82-.79c2.36-2.33,3.58-6.38,6.05-9a22.66,22.66,0,0,1,2-5l0,.25,1.13-1.46L48.39,91a3.23,3.23,0,0,1,.25-1.11,17.25,17.25,0,0,0,3.86-6c-.29-2,1.48-.39,1.45-2.18,0,.17.16.3.21.47a22.36,22.36,0,0,0,.9-4.35c1,.77.5-1,1-.51l-.37-.37c.45-.17,1-.88,1.22-.59l-.18-.95.48.2c.51-.83,1.17-2.86,2.32-2.8.51-2.48,2.57-5.69,4.23-8.23a3.33,3.33,0,0,1,.54-2l.9-.35c.18-.7-.13-1.73.53-2.11a.19.19,0,0,1,.1.15c.24-.69.86-1.12.69-2,.41-.66,1.07-1.17,1.45-.68-.85-.56.93-1.37.93-1.37s21.8-33.8,21.81-45c-.27-.53-.11-1.48-.79-1.47.18-.7,1.1-.55.74-.92-.76.67-1-.89-2-.38l.19-.58c-.25-.28,0,.91-.54.46l.73.61a1.35,1.35,0,0,1-1,.48c.1.58,1.06,1.45,0,2.14l.1-.29c-.4.79-.79.18-1,.26l.11-.17-.78.43c.55-.34.35-1.53.16-1.08-.75.8.33-.12,0,.62-.2.46-.56.09-.81-.07l-.4.79c-.36-.24.31-.5-.26-.4l-.14,1.19c-1.06-.35-.14,1.32-1.29,1.26.17-.83-.36-.12-.6-.4l-.91,1.74c-.23.09,0-.61-.14-.33-.45.18-.07.66-.17.83-.35,0-.71,1.29-1.32.89-1.07.92.53.94-.44,1.82-.46-.08.4-.91-.27-.66l-.49,1.21c-.13-.21-.5-.57-.18-1C77,21,74.08,21.48,73,24.55c-.68.13-.15-.46-.3-.91-.52,2.36-2.59,2.27-3.5,4l.36.24c-2.51,1.73-3.43,5-5.43,7.42l.44-.17a4.28,4.28,0,0,1-.22,1.74c-.23,0-.62-.78-.91.09.23-.08.55-.34.68-.13-2.28,1.76-4.79,6.79-7.4,10.34-2.61,5.31-6.49,10.49-9.1,15.68.41-.79,1.16.06.61.52C45.8,64.1,47,66.3,45,67.32c-1.15,3.24-4,5.09-4.33,8.52l-.47-.19c-.44.29-.19.58-.39,1l-.12-.08c-.74.93-1,2.43-1.52,2.89l.48.32c-.29.64-.56.1-.62.89l-.25-.16.08,1c-.85-.56-1,1.7-1.7,2a12.75,12.75,0,0,1-1.55,3.72c-.58,0-1.37,1.49-2.12,2.32-.87,1.93-2.11,4.71-3.48,7.07l.61.24-.27.66c-.13-.08-.24,0-.25-.15-.91.17-.51,1.58-1.17,1.9.69-.07.3-.41.49-.77.53-.39.86.38.23,1l-.12-.07.08.63c-.49-.17-.92.17-1.41,0-.88,2.2-.75,4-1.92,6.17-.43-.46-.56,1.67-1.28.83-.21,1.52.83.08,1.22,1-.16.37-.07.88-.44.81-.15-.27-.68.08-.64-.26l-.3.94c-.11.06-.15-.19-.17-.32-.23,2.06-1.89,3.13-2,5,.29.25.34-.65.64-.4.08,2-1.14,1.33-1.2,3.12l-.36-.49a2.76,2.76,0,0,1-.39,2.6c-.33.09-.36-.26-.31-.74a11,11,0,0,0,.16-1.45,9.41,9.41,0,0,0-.28,1c-.09.4-.18.83-.23,1.2-.1.74,0,1.22.32.84-.15,1.27-.81,1.7-1.17,2.42.14,0,.73-1.2.81-.46a33.55,33.55,0,0,0-1.9,6.49c-.16,0-.43.28-.47.12C17.79,129.82,16.37,130.24,16,132.65Z" fill="#fff"/>
        <path d="M85.17,139.83l-.46-.12a.47.47,0,0,1-.28.4Z" fill="#fff"/>
        <path d="M62.84,137.7a.73.73,0,0,0-.18.14A.2.2,0,0,0,62.84,137.7Z" fill="#fff"/>
        <path d="M57.32,138.25c.4-.09.07-.27-.11-.44A.54.54,0,0,0,57.32,138.25Z" fill="#fff"/>
        <path d="M98,139.18a.25.25,0,0,0-.14.25C97.93,139.33,98,139.25,98,139.18Z" fill="#fff"/>
        <path d="M133,141.66l-.14-.09A.28.28,0,0,0,133,141.66Z" fill="#fff"/>
        <path d="M131.06,140.65a1.16,1.16,0,0,0-.4.06A.51.51,0,0,0,131.06,140.65Z" fill="#fff"/>
        <path d="M89.45,138.8a.61.61,0,0,0-.38.16A.45.45,0,0,0,89.45,138.8Z" fill="#fff"/>
        <path d="M130.25,140.82l-.48-.09,0,.12Z" fill="#fff"/>
        <path d="M133.57,141.76a2.88,2.88,0,0,1-.61-.1A.57.57,0,0,0,133.57,141.76Z" fill="#fff"/>
        <path d="M110.85,139.26h0C110.4,139.5,110.65,139.41,110.85,139.26Z" fill="#fff"/>
        <path d="M128.06,141.7l-.06,0-.15.15Z" fill="#fff"/>
        <path d="M135.67,142.1a.45.45,0,0,0-.25.09l.28.08A.75.75,0,0,1,135.67,142.1Z" fill="#fff"/>
        <path d="M118.13,140.6a1,1,0,0,0,.22-.46C118.19,140.13,118.08,140.23,118.13,140.6Z" fill="#fff"/>
      </g>
      <g>
        <polygon points="159.69 89.5 117.61 128.97 90.6 167.31 63.59 128.97 21.51 89.5 42.81 69.75 48.52 18.33 74.5 54.69 90.6 52.09 106.71 54.69 132.68 18.33 138.4 69.75 159.69 89.5" fill="#f7941d" stroke="#231f20" stroke-miterlimit="10" stroke-width="4"/>
        <g>
          <polygon points="58.99 75.33 81.53 89.03 81.53 114.31 74.65 87.31 58.99 75.33" fill="#231f20" stroke="#231f20" stroke-miterlimit="10" stroke-width="4"/>
          <polygon points="123.07 75.33 100.53 89.03 100.53 114.31 107.4 87.31 123.07 75.33" fill="#231f20" stroke="#231f20" stroke-miterlimit="10" stroke-width="4"/>
        </g>
      </g>
    </g>
  </g>
</svg>
