<svg xmlns="http://www.w3.org/2000/svg" xmlns:xlink="http://www.w3.org/1999/xlink" viewBox="0 0 474.07 620">
  <defs>
    <clipPath id="clip-path">
      <rect x="62.29" y="337" width="360" height="102.35" fill="none"/>
    </clipPath>
  </defs>
  <g id="Layer_2" data-name="Layer 2">
    <g id="Layer_2-2" data-name="Layer 2">
      <g>
        <g>
          <polygon points="242.29 620 48.79 310 242.29 0 435.79 310 242.29 620"/>
          <polygon points="242.29 605 67.29 310 242.29 15 417.29 310 242.29 605" fill="#fff"/>
        </g>
        <path d="M241.76,295.07v52.65H109.67s-1.88-.9-2.19-1.49c-.51-1,0-4.33,0-4.33L106,334.69l-2.17-10.83a19.2,19.2,0,0,1-2.16-2.88,24.07,24.07,0,0,1-.72-4.33l-1.45-4.33L98.1,308l-.3-6.58-.42-9.29-.72.72s-.89-5.46-1.45-7.21-2.88-6.49-2.88-6.49l-5.77-5.78-2.17-1.44L68.52,256.77l-6.49-5L57,251s-5.77-2.16-9.38-3.61c-4.2-1.68-12-.13-20.92-1.44-8.22-1.21-16.27-3.61-18-3.61-1.44,0-7.93-1.44-7.93-1.44L4.32,233l4.32-5.78,3.61-2.88s10.61-6.39,14.43-7.94S42.55,212,42.55,212s2.13-1.15,2.89-1.44c4.54-1.72,14.27-3.18,18.75-5A53,53,0,0,0,70,201.94l7.22-4.32,3.61-2.17L88,191.84,94.49,189l8.17-1.81s11.18-1.13,14.92-1.08c2.74,0,10.92,1.08,10.92,1.08l10,1.81-.78,1.44h2.55l5,2.86,3.57,1.43,4.28,2.14,7.14,5,9.17,7.85H167l1.39,1.39,6.15,5.55H172l8.62,5.75s9.57,8.19,10.77,9.34c3.22,3.06,12.21,12.93,12.21,12.93l2.45,2.12,8.33,7.21,5,4.31,5.08,2.57Z" fill="#1a1a1a" stroke="#000" stroke-miterlimit="10"/>
        <g>
          <polygon points="248.36 298.27 289.23 217.3 316.22 182.59 346.3 127.84 359.41 182.59 402.6 200.33 414.94 229.64 473.55 246.6 465.83 263.57 384.86 280.53 368.67 299.04 366.35 326.03 369.44 359.19 248.36 298.27" fill="#f15a24" stroke="#000" stroke-miterlimit="10" stroke-width="0.75"/>
          <polygon points="473.55 246.28 471.01 251.84 465.83 263.24 384.86 280.21 377.12 280.96 360.95 282.52 324.71 274.04 333.6 262.93 333.96 262.47 375.13 244.61 442.31 253.54 464.29 247.05 467.8 244.61 473.55 246.28" fill="#fff" stroke="#000" stroke-miterlimit="10" stroke-width="0.5"/>
          <polygon points="343.99 319.86 354.78 351.48 369.44 359.19 366.35 326.03 368.67 299.04 384.86 280.21 360.95 282.52 339.36 306.75 343.99 319.86" fill="#fff" stroke="#000" stroke-miterlimit="10" stroke-width="0.5"/>
          <polygon points="347.84 189.53 346.3 127.84 359.41 182.59 354.78 183.37 347.84 189.53" fill="#fff" stroke="#000" stroke-miterlimit="10" stroke-width="0.5"/>
          <polyline points="333.19 234.26 319.31 261.25 333.96 262.47 324.71 274.04 360.95 282.52 384.86 280.53" fill="none" stroke="#000" stroke-miterlimit="10" stroke-width="0.5"/>
          <polygon points="473.55 246.44 471.01 252 464.29 252 464.29 247.21 467.8 244.77 473.55 246.44"/>
        </g>
        <polygon points="288.35 190.41 310.07 192.08 307.87 194.27 284.17 194.56 250.71 216.11 250.71 410.6 250.53 410.6 250.53 417.31 250.55 472.6 267.81 480.73 271.45 484.44 283.26 489.56 272.37 486.3 281.91 496.06 274.18 490.95 277.35 501.17 271.91 489.09 266.9 484.44 253.27 477.93 266.45 492.81 267.81 497.92 274.27 501.03 278.27 510.93 272.81 502.56 268.72 501.17 271 514.65 264.19 495.6 259.81 490.59 261 501.64 257.35 487.76 249.18 478.4 254.64 493.74 258.28 518.37 254.18 501.64 250.09 512.33 253.27 529.06 248.27 512.79 253.27 497.92 252.36 494.21 248.27 482.59 243.73 495.13 245.09 503.96 242.36 494.67 246 481.19 242.82 477.47 239.19 482.12 235.09 491.42 235.55 495.6 244.64 510.47 236.01 499.78 237.82 525.35 235.09 503.96 225.55 521.62 233.88 501.5 232.37 492.34 236.46 477.93 221.92 489.56 226.91 496.53 228.73 505.82 226.01 497.92 220.1 491.42 218.27 496.06 221.46 509.54 216.91 497.46 209.64 512.33 213.74 501.64 208.73 504.43 214.4 499.93 218.74 488.62 231 476.54 217.83 479.79 215.55 483.51 213.74 494.67 213.74 486.05 202.42 506.99 215.09 480.59 210.11 484.22 201.97 496.69 208.28 484.58 201.97 487.86 216 478.3 234.34 473.07 234.34 410.6 234.52 410.6 234.52 218.18 212.07 198.77 175.88 190 174.52 187.69 182.21 189.29 179.56 181.69 181.38 182.14 183.68 189.54 209.78 195.08 191 170.14 191.92 168.75 215.74 195.53 234.28 209.2 234.51 199.69 232.68 187.69 203.6 152.17 182.3 141.97 181.84 139.66 201.99 147.97 187.34 124.37 190.55 124.37 208.32 151.7 233.14 178.45 234.05 153.98 226.26 122.9 228.58 122.9 237.74 147.97 246.89 126.73 247.81 129.96 239.11 155.36 240.49 184 243.7 192.31 261.55 174.3 267.96 136.9 269.8 138.74 267.04 167.37 292.22 132.27 305.89 126.73 305.89 129.69 293.43 136.13 278.21 160.52 291.13 168.34 290.21 170.17 276.37 165.58 250.53 199.16 250.74 204.59 268.06 196.4 272.68 180.3 274.52 181.22 272.22 194.56 285.14 188.59 299.89 158.22 301.74 158.22 297.02 169.59 307.14 165.71 310.07 166.45 295.74 172.47 288.35 190.41"/>
        <polygon points="242.71 483.5 52.29 387.62 241.88 293.5 432.29 389.38 242.71 483.5" fill="#642d10" stroke="#000" stroke-miterlimit="10" stroke-width="5"/>
        <rect x="48.29" y="333.5" width="388" height="110" fill="#fff" stroke="#000" stroke-miterlimit="10" stroke-width="3"/>
        <g id="Artwork_13" data-name="Artwork 13">
          <g clip-path="url(#clip-path)">
            <g clip-path="url(#clip-path)">
              <text transform="translate(132.6 432.28) scale(1.1 1)" font-size="40" fill="#4d4d4d" font-family="OCRAExtended, OCR A Extended"><tspan letter-spacing="-0.05em">C</tspan><tspan x="22.2" y="0" letter-spacing="-0.05em">re</tspan><tspan x="66.52" y="0" letter-spacing="-0.05em">atio</tspan><tspan x="155.32" y="0" letter-spacing="-0.05em">n</tspan><tspan x="177.48" y="0">s</tspan></text>
            </g>
            <text transform="translate(132.6 430.71) scale(1.1 1)" font-size="40" fill="#c3922e" font-family="OCRAExtended, OCR A Extended"><tspan letter-spacing="-0.05em">C</tspan><tspan x="22.2" y="0" letter-spacing="-0.05em">re</tspan><tspan x="66.52" y="0" letter-spacing="-0.05em">atio</tspan><tspan x="155.32" y="0" letter-spacing="-0.05em">n</tspan><tspan x="177.48" y="0">s</tspan></text>
            <g clip-path="url(#clip-path)">
              <text transform="translate(115.79 381.81)" font-size="53" font-family="BookAntiqua, Book Antiqua"><tspan letter-spacing="0.1em">Ki</tspan><tspan x="64.4" y="0">t</tspan></text>
              <text transform="translate(202.87 381.81)" font-size="53" font-family="BookAntiqua, Book Antiqua">&amp;</text>
              <text transform="translate(242.77 381.81)" font-size="53" font-family="BookAntiqua, Book Antiqua"><tspan letter-spacing="-0.02em">C</tspan><tspan x="36.41" y="0" letter-spacing="-0.03em">r</tspan><tspan x="55.97" y="0" letter-spacing="-0.05em">o</tspan><tspan x="82.46" y="0">w</tspan></text>
            </g>
            <polygon points="62.29 389.3 70.88 395.3 422.29 395.3 413.7 389.3 62.29 389.3"/>
          </g>
        </g>
      </g>
    </g>
  </g>
</svg>
